PathFileType	4	(X/Y/Z)	D:\TRACE\v60_Jaco2_6-2-23\JustBodyDRS_Motion1_9-v60.trc
DataRate	CameraRate	NumFrames	NumMarkers	Units	OrigDataRate	OrigDataStartFrame	OrigNumFrames
100.00	100.00	      13	9	mm	100.00	1690	      6756
Frame#	Time	front left toe			Front right toe			aft left toe			aft right toe			Arm			FL body			FR body			AL Body			AR Body			
		X1	Y1	Z1	X2	Y2	Z2	X3	Y3	Z3	X4	Y4	Z4	X5	Y5	Z5	X6	Y6	Z6	X7	Y7	Z7	X8	Y8	Z8	X9	Y9	Z9	

1690	16.890	-245.46385	102.23190	-218.19901	147.22562	22.29085	-243.73384	-194.38562	5.33442	403.63937	161.39455	81.45464	388.03760	-180.42107	1215.80908	-333.57312	-141.21379	585.57355	-360.33179	19.10446	588.87341	-369.00656	-89.64739	538.48016	583.38104	65.94308	535.85059	574.33838	
1691	16.900	-247.05659	94.97292	-219.29622	146.89645	22.09667	-243.80231	-194.75233	5.58572	403.32986	157.66949	70.17705	388.24899	-181.23372	1215.50781	-334.50446	-141.69519	585.05579	-360.59344	18.40390	588.60382	-369.26486	-91.57669	538.93665	582.94653	63.65680	535.81116	574.41943	
1692	16.910	-249.38779	86.60543	-220.19366	146.49332	21.90620	-243.82425	-195.01694	5.50553	403.30750	154.30469	59.13755	388.84763	-182.15802	1215.20764	-335.29431	-142.60060	584.61554	-361.14380	17.66448	588.39227	-369.31897	-92.92664	539.26227	582.69910	62.19757	536.15778	574.36774	
1693	16.920	-250.90775	77.32067	-220.98172	146.41054	21.84119	-243.82558	-195.24660	5.50256	403.24377	151.15721	49.54742	388.37604	-183.15021	1214.54578	-335.99017	-143.17677	584.23126	-361.41617	16.82005	587.97510	-369.74716	-94.62203	539.45392	582.15240	60.84540	536.24829	573.95398	
1694	16.930	-252.76677	67.90636	-221.46477	146.14684	21.76558	-243.80740	-195.44395	5.63278	403.20367	148.16797	39.50003	388.00201	-183.81853	1214.25781	-336.74023	-143.94522	583.98987	-361.91165	16.11928	587.71277	-370.06738	-95.67091	539.79340	582.05841	59.31694	536.52197	573.88318	
1695	16.940	-254.55649	59.36273	-222.24985	145.97946	21.70362	-243.86891	-195.04990	5.27864	403.20502	145.85324	30.44338	387.23648	-184.42209	1214.07043	-337.40619	-144.78839	583.71045	-362.45718	15.53590	587.52307	-370.38840	-97.70919	539.32019	581.66559	57.38879	536.31055	573.65936	
1696	16.950	-256.31598	51.79652	-223.27734	145.55872	21.52877	-243.94533	-195.79112	5.68414	403.05927	143.44180	22.57291	385.94290	-184.94257	1214.09229	-338.19528	-145.55150	583.61920	-363.14627	14.94692	587.07483	-370.76624	-99.59642	539.59277	580.87952	55.78252	536.37933	573.12067	
1697	16.960	-257.82632	44.68239	-224.63014	145.30408	21.32186	-244.10966	-196.44678	6.03881	402.88519	141.46321	17.02428	384.07040	-185.02347	1214.02588	-339.01300	-146.34727	583.39685	-363.79932	14.03992	586.74927	-371.46024	-101.23874	539.31934	580.32379	54.46362	536.17047	572.58276	
1698	16.970	-259.43472	38.99347	-226.12296	145.20497	21.26455	-244.14404	-196.73351	6.30933	402.61722	140.16074	13.98803	381.99976	-185.20767	1214.07922	-340.37170	-146.91675	583.39233	-364.44580	13.80864	586.74426	-371.94806	-102.88754	539.22552	579.63037	52.49691	535.86072	572.15204	
1699	16.980	-261.25397	32.83311	-227.92786	145.14957	21.17222	-244.17169	-196.85738	6.29386	402.61172	140.54581	13.81617	381.39868	-185.58983	1213.65222	-340.66559	-147.77924	583.06573	-365.33368	12.39221	586.40717	-372.67798	-104.65209	539.41321	578.74603	50.73318	535.57166	570.51947	
1700	16.990	-263.07236	26.62018	-229.95338	145.14857	21.13243	-244.13960	-197.19409	6.66428	402.54062	141.18492	13.00942	380.63428	-185.64696	1213.64087	-341.27310	-148.48412	582.55096	-366.23282	11.95075	585.98090	-373.18985	-106.43336	540.31702	578.18994	48.56364	536.52771	569.86395	
1701	17.000	-264.05850	25.02326	-232.31688	145.09521	20.96570	-243.88606	-197.43871	7.33102	402.41547	140.97505	13.62786	381.27802	-186.40208	1213.78918	-342.78076	-148.96304	581.82220	-367.28250	11.86635	585.99402	-374.42258	-108.43414	541.90491	577.02625	46.35728	538.09601	568.98914	
1702	17.010	-264.53412	21.77579	-232.24597	144.80208	20.86161	-244.18414	-197.61002	7.87341	402.04056	140.26340	14.62657	381.34076	-188.50992	1213.63074	-345.11313	-149.47987	582.54095	-368.01938	10.81695	585.78479	-374.59744	-110.18130	542.87274	576.55408	44.85466	539.32953	569.65442	
